<svg xmlns="http://www.w3.org/2000/svg" version="1.1" xmlns:xlink="http://www.w3.org/1999/xlink" xmlns:svgjs="http://svgjs.com/svgjs" width="1440" height="560" preserveAspectRatio="none" viewBox="0 0 1440 560"><g mask="url(&quot;#SvgjsMask1256&quot;)" fill="none"><rect width="1440" height="560" x="0" y="0" fill="rgba(255, 148, 158, 1)"></rect><path d="M0,617.316C116.472,626.146,225.835,567.457,324.293,504.61C422.983,441.615,512.954,362.945,563.76,257.461C615.156,150.752,617.422,30.539,609.549,-87.64C601.139,-213.892,590.489,-344.946,516.779,-447.791C439.847,-555.132,327.438,-662.781,195.403,-665.483C63.141,-668.189,-9.992,-503.244,-135.402,-461.137C-253.027,-421.644,-403.567,-511.695,-498.959,-432.35C-592.872,-354.235,-569.927,-205.35,-588.136,-84.561C-606.479,37.115,-664.491,168.503,-605.848,276.681C-547.404,384.493,-401.059,397.624,-294.163,457.726C-194.914,513.528,-113.535,608.709,0,617.316" fill="#ff7481"></path><path d="M1440 1109.193C1558.145 1126.566 1681.002 1152.6680000000001 1790.975 1106.129 1909.377 1056.024 2034.703 970.196 2064.178 845.053 2093.7110000000002 719.664 1950.248 616.701 1936.416 488.626 1921.75 352.825 2067.932 196.48899999999998 1982.616 89.82 1898.5430000000001-15.294999999999959 1722.95 62.55799999999999 1588.634 53.80000000000001 1486.742 47.15599999999995 1388.621 23.758000000000038 1288.657 44.572 1182.23 66.731 1062.7930000000001 89.69 997.787 176.82100000000003 933.424 263.091 974.796 384.43 956.0260000000001 490.415 936.404 601.2139999999999 845.874 707.954 885.043 813.44 924.208 918.915 1050.34 958.905 1149.632 1011.821 1241.586 1060.826 1336.912 1094.034 1440 1109.193" fill="#ffb4bb"></path></g><defs><mask id="SvgjsMask1256"><rect width="1440" height="560" fill="#ffffff"></rect></mask></defs></svg>